<svg width="23" height="23" viewBox="0 0 23 23" fill="none" xmlns="http://www.w3.org/2000/svg">
<g clip-path="url(#clip0_64_40)">
<path d="M6.38745 2.87012V4.93262M16.0125 2.87012V4.93262M2.94995 17.3076V6.99512C2.94995 6.44811 3.16725 5.92351 3.55405 5.53671C3.94083 5.14992 4.46545 4.93262 5.01245 4.93262H17.3875C17.9345 4.93262 18.4591 5.14992 18.8458 5.53671C19.2326 5.92351 19.45 6.44811 19.45 6.99512V17.3076M2.94995 17.3076C2.94995 17.8547 3.16725 18.3793 3.55405 18.766C3.94083 19.1528 4.46545 19.3701 5.01245 19.3701H17.3875C17.9345 19.3701 18.4591 19.1528 18.8458 18.766C19.2326 18.3793 19.45 17.8547 19.45 17.3076M2.94995 17.3076V10.4326C2.94995 9.88561 3.16725 9.36101 3.55405 8.97421C3.94083 8.58742 4.46545 8.37012 5.01245 8.37012H17.3875C17.9345 8.37012 18.4591 8.58742 18.8458 8.97421C19.2326 9.36101 19.45 9.88561 19.45 10.4326V17.3076" stroke="#333333" stroke-width="1.22222" stroke-linecap="round" stroke-linejoin="round"/>
</g>
<defs>
<clipPath id="clip0_64_40">
<rect width="22" height="22" fill="white" transform="translate(0.199951 0.120117)"/>
</clipPath>
</defs>
</svg>
