<svg width="40" height="40" viewBox="0 0 40 40" fill="none" xmlns="http://www.w3.org/2000/svg">
<rect width="40" height="40" rx="20" fill="#CEFDB8"/>
<g clip-path="url(#clip0_36_738)">
<path fill-rule="evenodd" clip-rule="evenodd" d="M25.25 8.75C28.564 8.75 31.25 11.436 31.25 14.75C31.25 17.009 30.002 18.976 28.157 20C30.002 21.024 31.25 22.991 31.25 25.25C31.25 28.564 28.564 31.25 25.25 31.25C22.991 31.25 21.024 30.002 20 28.157C18.976 30.002 17.009 31.25 14.75 31.25C11.436 31.25 8.75 28.564 8.75 25.25C8.75 22.991 9.998 21.024 11.843 20C9.998 18.976 8.75 17.01 8.75 14.75C8.75 11.436 11.436 8.75 14.75 8.75C17.009 8.75 18.976 9.998 20 11.843C21.024 9.998 22.99 8.75 25.25 8.75ZM14.75 20.75C12.265 20.75 10.25 22.765 10.25 25.25C10.25 27.735 12.265 29.75 14.75 29.75C17.235 29.75 19.25 27.735 19.25 25.25C19.25 22.765 17.235 20.75 14.75 20.75ZM25.25 20.75C22.765 20.75 20.75 22.765 20.75 25.25C20.75 27.735 22.765 29.75 25.25 29.75C27.735 29.75 29.75 27.735 29.75 25.25C29.75 22.765 27.735 20.75 25.25 20.75ZM27.5 26V27.5H23V26H27.5ZM15.91 23.035L16.965 24.09L15.811 25.25L16.965 26.404L15.91 27.471L14.75 26.311L13.59 27.471L12.535 26.404L13.69 25.25L12.536 24.09L13.591 23.035L14.751 24.189L15.91 23.035ZM27.5 23V24.5H23V23H27.5ZM20 17.657L19.895 17.839C19.352 18.741 18.579 19.489 17.657 19.999C18.64 20.546 19.454 21.359 20 22.343C20.546 21.36 21.36 20.546 22.343 20C21.36 19.454 20.546 18.64 20 17.657ZM14.75 10.25C12.265 10.25 10.25 12.265 10.25 14.75C10.25 17.235 12.265 19.25 14.75 19.25C17.235 19.25 19.25 17.235 19.25 14.75C19.25 12.265 17.235 10.25 14.75 10.25ZM25.25 10.25C22.765 10.25 20.75 12.265 20.75 14.75C20.75 17.235 22.765 19.25 25.25 19.25C27.735 19.25 29.75 17.235 29.75 14.75C29.75 12.265 27.735 10.25 25.25 10.25ZM15.5 12.5V14H17V15.5H15.5V17H14V15.5H12.5V14H14V12.5H15.5ZM27.5 14V15.5H23V14H27.5Z" fill="#2B0800"/>
</g>
<defs>
<clipPath id="clip0_36_738">
<rect width="24" height="24" fill="white" transform="translate(8 8)"/>
</clipPath>
</defs>
</svg>
