<svg width="50" height="47" viewBox="0 0 50 47" fill="none" xmlns="http://www.w3.org/2000/svg">
<path d="M3.63845 39.9225C2.73405 39.9225 1.95886 39.5995 1.31286 38.9535C0.66687 38.3075 0.343872 37.5323 0.343872 36.6279V3.4884C0.343872 2.58401 0.66687 1.80882 1.31286 1.16282C1.95886 0.516827 2.73405 0.193829 3.63845 0.193829H40.0726C40.9769 0.193829 41.7521 0.516827 42.3981 1.16282C43.0441 1.80882 43.3671 2.58401 43.3671 3.4884V5.13569H41.7198V3.4884C41.7198 3.03621 41.5583 2.64861 41.2353 2.32561C40.9123 2.00261 40.5247 1.84111 40.0726 1.84111H3.63845C3.18625 1.84111 2.79865 2.00261 2.47566 2.32561C2.15266 2.64861 1.99116 3.03621 1.99116 3.4884V36.6279C1.99116 37.0801 2.15266 37.4677 2.47566 37.7907C2.79865 38.1137 3.18625 38.2752 3.63845 38.2752H5.28573V39.9225H3.63845ZM3.63845 3.4884H5.28573V5.13569H3.63845V3.4884ZM6.93302 3.4884H8.58031V5.13569H6.93302V3.4884ZM10.2276 3.4884H11.9718V5.13569H10.2276V3.4884ZM6.93302 43.2171V10.1744C6.93302 9.20546 7.25602 8.39796 7.90201 7.75197C8.54801 7.10597 9.3232 6.78297 10.2276 6.78297H46.6617C47.5661 6.78297 48.3413 7.10597 48.9873 7.75197C49.6333 8.39796 49.9563 9.20546 49.9563 10.1744V43.2171C49.9563 44.1215 49.6333 44.8967 48.9873 45.5427C48.3413 46.1887 47.5661 46.5117 46.6617 46.5117H10.2276C9.6462 46.5117 9.0971 46.3663 8.58031 46.0756C8.06351 45.7849 7.65976 45.3812 7.36907 44.8644C7.07837 44.3476 6.93302 43.7985 6.93302 43.2171ZM8.58031 10.1744V43.2171C8.58031 43.6693 8.74181 44.0569 9.0648 44.3799C9.3878 44.7029 9.7754 44.8644 10.2276 44.8644H46.6617C47.1139 44.8644 47.5015 44.7029 47.8245 44.3799C48.1475 44.0569 48.309 43.6693 48.309 43.2171V10.1744C48.309 9.72225 48.1475 9.33466 47.8245 9.01166C47.5015 8.68866 47.1139 8.52716 46.6617 8.52716H10.2276C9.7754 8.52716 9.3878 8.68866 9.0648 9.01166C8.74181 9.33466 8.58031 9.72225 8.58031 10.1744ZM10.2276 10.1744H11.9718V11.8217H10.2276V10.1744ZM13.6191 10.1744H15.2664V11.8217H13.6191V10.1744ZM16.9136 10.1744H18.5609V11.8217H16.9136V10.1744ZM10.2276 13.469H46.6617V15.1163H10.2276V13.469ZM10.2276 17.5388H16.9136V19.283H10.2276V17.5388ZM10.2276 20.9303H15.2664V22.5775H10.2276V20.9303ZM24.4233 25.9206C24.4233 25.9206 24.706 25.6379 25.2712 25.0727C25.8364 24.5075 26.9104 24.2248 28.4931 24.2248C30.0758 24.2248 31.4324 24.7901 32.5629 25.9206C33.6934 27.0511 34.2586 28.4077 34.2586 29.9903C34.2586 31.573 33.6934 32.9296 32.5629 34.0601C31.4324 35.1906 30.0758 35.7558 28.4931 35.7558C26.9104 35.7558 25.5538 35.1906 24.4233 34.0601C23.2928 32.9296 22.7276 31.573 22.7276 29.9903C22.7276 28.4077 23.2928 27.0511 24.4233 25.9206ZM25.5861 32.8973C25.5861 32.8973 25.788 33.0992 26.1917 33.5029C26.5955 33.9067 27.3626 34.1086 28.4931 34.1086C29.6236 34.1086 30.5926 33.7048 31.4001 32.8973C32.2076 32.0898 32.6113 31.1208 32.6113 29.9903C32.6113 28.8598 32.2076 27.8909 31.4001 27.0834C30.5926 26.2759 29.6236 25.8721 28.4931 25.8721C27.3626 25.8721 26.3936 26.2759 25.5861 27.0834C24.7786 27.8909 24.3749 28.8598 24.3749 29.9903C24.3749 31.1208 24.7786 32.0898 25.5861 32.8973ZM41.7198 27.5194V32.4613C41.7198 33.0427 41.4291 33.3334 40.8477 33.3334H38.716C38.5222 33.8502 38.2961 34.367 38.0377 34.8838L39.5881 36.4341C39.9757 36.8217 39.9757 37.2093 39.5881 37.5969L36.0997 41.0853C35.7121 41.4729 35.3245 41.4729 34.9369 41.0853L33.3865 39.5349C32.8697 39.7933 32.3206 40.0194 31.7392 40.2132V42.4419C31.7392 42.9587 31.4808 43.2171 30.964 43.2171H26.0222C25.4408 43.2171 25.1501 42.9587 25.1501 42.4419V40.2132C24.6333 40.0194 24.1165 39.7933 23.5997 39.5349L22.0493 41.0853C21.6617 41.4729 21.2741 41.4729 20.8865 41.0853L17.3981 37.5969C17.0105 37.2093 17.0105 36.8217 17.3981 36.4341L18.9485 34.8838C18.6901 34.367 18.464 33.8502 18.2702 33.3334H16.0415C15.5248 33.3334 15.2664 33.0427 15.2664 32.4613V27.5194C15.2664 26.938 15.5248 26.6473 16.0415 26.6473H18.2702C18.3994 26.2597 18.5286 25.8721 18.6578 25.4845C18.7224 25.3553 18.8193 25.2261 18.9485 25.0969L17.3981 23.5465C17.0105 23.1589 17.0105 22.7713 17.3981 22.3838L20.8865 18.8954C21.2741 18.5078 21.6617 18.5078 22.0493 18.8954L23.5997 20.4458C24.1165 20.1874 24.6333 19.9613 25.1501 19.7675V17.5388C25.1501 17.022 25.4408 16.7636 26.0222 16.7636H30.964C31.4808 16.7636 31.7392 17.022 31.7392 17.5388V19.7675C32.3206 19.9613 32.8697 20.1874 33.3865 20.4458L34.9369 18.8954C35.3245 18.5078 35.7121 18.5078 36.0997 18.8954L39.5881 22.3838C39.9757 22.7713 39.9757 23.1589 39.5881 23.5465L38.0377 25.0969C38.2961 25.6137 38.5222 26.1305 38.716 26.6473H40.8477C41.4291 26.6473 41.7198 26.938 41.7198 27.5194ZM40.0726 31.6861V28.2946H38.0377C37.6501 28.2946 37.3917 28.1008 37.2625 27.7132C37.0687 26.8734 36.7457 26.0982 36.2935 25.3876C36.0997 25 36.132 24.677 36.3904 24.4186L37.8439 22.9651L35.5183 20.6396L34.0648 21.9962C33.8064 22.3192 33.4834 22.3838 33.0958 22.19C32.3852 21.7378 31.61 21.4148 30.7702 21.221C30.318 21.0918 30.0919 20.8011 30.0919 20.3489V18.4109H26.7974V20.3489C26.7974 20.8011 26.6036 21.0918 26.216 21.221C25.3762 21.4148 24.601 21.7378 23.8904 22.19C23.5028 22.3838 23.1475 22.3192 22.8245 21.9962L21.4679 20.6396L19.1423 22.9651L20.4989 24.3217C20.8219 24.6447 20.8542 25 20.5958 25.3876C20.4666 25.646 20.3374 25.9044 20.2082 26.1628C20.0144 26.6796 19.8206 27.1964 19.6268 27.7132C19.5622 28.1008 19.3038 28.2946 18.8516 28.2946H16.9136V31.6861H18.8516C19.3038 31.6861 19.5622 31.8799 19.6268 32.2675C19.8852 33.1073 20.2082 33.8825 20.5958 34.5931C20.8542 34.9806 20.8219 35.3036 20.4989 35.562L19.1423 37.0155L21.4679 39.3411L22.8245 37.9845C23.1475 37.6615 23.5028 37.5969 23.8904 37.7907C24.601 38.2429 25.3762 38.5659 26.216 38.7597C26.6036 38.8889 26.7974 39.1796 26.7974 39.6318V41.5698H30.0919V39.6318C30.0919 39.1796 30.318 38.8889 30.7702 38.7597C31.61 38.5659 32.3852 38.2429 33.0958 37.7907C33.4834 37.5969 33.8064 37.6615 34.0648 37.9845L35.5183 39.3411L37.8439 37.0155L36.3904 35.562C36.132 35.3036 36.0997 34.9806 36.2935 34.5931C36.7457 33.8825 37.0687 33.1073 37.2625 32.2675C37.3917 31.8799 37.6501 31.6861 38.0377 31.6861H40.0726ZM41.7198 41.5698H46.6617V43.2171H41.7198V41.5698Z" fill="white"/>
</svg>
