<svg width="22" height="21" viewBox="0 0 22 21" fill="none" xmlns="http://www.w3.org/2000/svg">
<g clip-path="url(#clip0_1_306)">
<path d="M10.7269 3.528C10.8529 2.99162 10.9168 2.72388 11.0183 2.66437C11.1058 2.61187 11.2143 2.61187 11.3018 2.66437C11.4033 2.72388 11.4671 2.99162 11.5931 3.528L12.21 6.14075C12.4393 7.112 12.5539 7.5985 12.8033 7.99313C13.0238 8.34138 13.3186 8.63625 13.6669 8.85675C14.0606 9.10612 14.5471 9.22075 15.5193 9.45L18.132 10.0669C18.6684 10.1929 18.9361 10.2568 18.9965 10.3583C19.0481 10.4458 19.0481 10.5542 18.9965 10.6417C18.9353 10.7432 18.6684 10.8071 18.132 10.9331L15.5193 11.55C14.548 11.7792 14.0615 11.8939 13.6669 12.1433C13.3186 12.3638 13.0238 12.6586 12.8033 13.0069C12.5539 13.4006 12.4393 13.8871 12.21 14.8593L11.5931 17.472C11.4671 18.0084 11.4033 18.2761 11.3018 18.3365C11.2143 18.3881 11.1058 18.3881 11.0183 18.3365C10.9168 18.2752 10.8529 18.0084 10.7269 17.472L10.11 14.8593C9.88076 13.888 9.76613 13.4015 9.51676 13.0069C9.29642 12.6586 9.00143 12.3636 8.65313 12.1433C8.25938 11.8939 7.77288 11.7792 6.80076 11.55L4.18801 10.9331C3.65163 10.8071 3.38388 10.7432 3.32438 10.6417C3.29897 10.5988 3.28557 10.5499 3.28557 10.5C3.28557 10.4501 3.29897 10.4012 3.32438 10.3583C3.38388 10.2568 3.65163 10.1929 4.18801 10.0669L6.80076 9.45C7.77201 9.22075 8.25851 9.10612 8.65313 8.85675C9.00138 8.63625 9.29626 8.34138 9.51676 7.99313C9.76613 7.59938 9.88076 7.11288 10.11 6.14075L10.7269 3.528Z" fill="#00C100"/>
</g>
<defs>
<clipPath id="clip0_1_306">
<rect width="21" height="21" fill="white" transform="translate(0.660004)"/>
</clipPath>
</defs>
</svg>
