<svg width="32" height="32" viewBox="0 0 32 32" fill="none" xmlns="http://www.w3.org/2000/svg">
<path d="M22.4021 20.0881C22.3701 19.9761 22.3301 19.8881 22.2821 19.8241C22.2341 19.7601 22.1501 19.7001 22.0301 19.6441C21.9101 19.5881 21.8181 19.5601 21.7541 19.5601C21.6261 19.5601 21.5301 19.5681 21.4661 19.5841C20.1061 19.9681 18.7381 19.9761 17.3621 19.6081C15.9861 19.2401 14.8021 18.5601 13.8101 17.5681C12.8181 16.5761 12.1381 15.3921 11.7701 14.0161C11.4021 12.6401 11.4101 11.2721 11.7941 9.91206C11.8261 9.76806 11.8301 9.63206 11.8061 9.50406C11.7821 9.37606 11.7181 9.26406 11.6141 9.16806C11.5101 9.07206 11.3861 9.00406 11.2421 8.96406C11.0981 8.92406 10.9701 8.92806 10.8581 8.97606C9.22611 9.42406 7.84211 10.2401 6.70611 11.4241C5.50611 12.6401 4.70611 14.0401 4.30611 15.6241C3.89011 17.2401 3.89811 18.8481 4.33011 20.4481C4.76211 22.0481 5.57011 23.4401 6.75411 24.6241C7.93811 25.8081 9.33011 26.6161 10.9301 27.0481C12.5301 27.4801 14.1381 27.4881 15.7541 27.0721C16.5381 26.8641 17.2901 26.5561 18.0101 26.1481C18.7301 25.7401 19.3781 25.2481 19.9541 24.6721C21.1541 23.5041 21.9701 22.1201 22.4021 20.5201C22.4501 20.3761 22.4501 20.2321 22.4021 20.0881ZM13.3781 25.8721C12.4821 25.8721 11.6101 25.7241 10.7621 25.4281C9.91411 25.1321 9.14211 24.7041 8.44611 24.1441C7.75011 23.5841 7.16611 22.9201 6.69411 22.1521C6.22211 21.3841 5.89011 20.5601 5.69811 19.6801C5.50611 18.8001 5.46211 17.9161 5.56611 17.0281C5.67011 16.1401 5.92211 15.2961 6.32211 14.4961C6.72211 13.6961 7.24211 12.9801 7.88211 12.3481C8.52211 11.7161 9.25011 11.2161 10.0661 10.8481C9.89011 12.3041 10.0381 13.7081 10.5101 15.0601C10.9821 16.4121 11.7301 17.6001 12.7541 18.6241C13.7781 19.6481 14.9661 20.3961 16.3181 20.8681C17.6701 21.3401 19.0741 21.4881 20.5301 21.3121C19.8901 22.6881 18.9221 23.7921 17.6261 24.6241C16.3301 25.4561 14.9141 25.8721 13.3781 25.8721Z" fill="#716F6E"/>
</svg>
