<svg width="25" height="24" viewBox="0 0 25 24" fill="none" xmlns="http://www.w3.org/2000/svg">
<g clip-path="url(#clip0_14_11)">
<path fill-rule="evenodd" clip-rule="evenodd" d="M12.4399 24C19.0669 24 24.4399 18.627 24.4399 12C24.4399 5.373 19.0669 0 12.4399 0C5.81294 0 0.439941 5.373 0.439941 12C0.439941 18.627 5.81294 24 12.4399 24ZM8.43994 7.4C8.28081 7.4 8.1282 7.46321 8.01568 7.57574C7.90316 7.68826 7.83994 7.84087 7.83994 8C7.83994 8.15913 7.90316 8.31174 8.01568 8.42426C8.1282 8.53679 8.28081 8.6 8.43994 8.6H14.9919L8.37894 15.212C8.26636 15.3246 8.20311 15.4773 8.20311 15.6365C8.20311 15.7957 8.26636 15.9484 8.37894 16.061C8.49153 16.1736 8.64422 16.2368 8.80344 16.2368C8.96266 16.2368 9.11536 16.1736 9.22794 16.061L15.8399 9.449V16C15.8399 16.1591 15.9032 16.3117 16.0157 16.4243C16.1282 16.5368 16.2808 16.6 16.4399 16.6C16.5991 16.6 16.7517 16.5368 16.8642 16.4243C16.9767 16.3117 17.0399 16.1591 17.0399 16V8C17.0399 7.92121 17.0244 7.84319 16.9943 7.77039C16.9641 7.69759 16.9199 7.63145 16.8642 7.57574C16.8085 7.52002 16.7423 7.47583 16.6696 7.44567C16.5968 7.41552 16.5187 7.4 16.4399 7.4H8.43994Z" fill="white"/>
</g>
<defs>
<clipPath id="clip0_14_11">
<rect width="24" height="24" fill="white" transform="translate(0.439941)"/>
</clipPath>
</defs>
</svg>
